<svg id="Layer_1" data-name="Layer 1" xmlns="http://www.w3.org/2000/svg" viewBox="0 0 338.02 254.51"><defs><style>.cls-1{fill:#3b4652;}</style></defs><path class="cls-1" d="M591.57,571.81H578.45V559.69h13.12c11.61,0,21-11.12,21-24.78a31.58,31.58,0,0,0-.18-3.26A28.89,28.89,0,0,1,591.57,541c-10.1,0-18.32-9.63-18.32-21.48S581.47,498,591.57,498a28.89,28.89,0,0,1,20.87,9.31,31.54,31.54,0,0,0,.18-3.25c0-13.68-9.44-24.79-21-24.79V467.15c17.34,0,31.45,16.56,31.45,36.91a42,42,0,0,1-2.88,15.42A42.06,42.06,0,0,1,623,534.91C623,555.25,608.91,571.81,591.57,571.81Zm0-61.7c-4.37,0-7.92,4.2-7.92,9.37s3.55,9.36,7.92,9.36c6.66,0,12.61-3.66,16.47-9.36C604.18,513.78,598.23,510.11,591.57,510.11Z" transform="translate(-285 -444)"/><path class="cls-1" d="M448.42,472.82c-18,0-37.35,5-53.11,9.6a159.45,159.45,0,0,0-16.34-24C365.84,443,338.11,444,338.11,444S352,457.4,358.54,472.82c2.11,5,4,16.31,4.08,24-21.45,11.69-37.24,25.85-46.43,44.54-3.58,7.26-9.18,12.84-17.13,14.88l-14.06,3v48s8.52,3.24,18.72,8l-1-1c.53-.21,17.05-6.06,26-6.06s12.41-11.7,12.5-12.1l10.06,3.05c-1.46,6.55-7.81,18.94-21.37,18.94-4.24,0-10.2,1.59-14.48,3,7.42,4,14.45,8.39,18.68,12.68l.31.3a57.81,57.81,0,0,1,16.38,34.69l3.62,29.72h36.77l8.17-28.81c15.33,4.28,31.63,9.6,49,9.6,19.84,0,36.07-8.92,53.11-14.4l4.09,33.61h34.57l1.23-11.57C544,662.34,557.78,641,571,621.68c9.12-13.37,12.66-30.62,12.66-46.56C583.65,519.75,524.52,472.82,448.42,472.82Zm-90.81,80.77c-8.5,0-15.41-8.1-15.41-18.06h10.39c0,3.28,2.26,5.94,5,5.94s5-2.66,5-5.94H373C373,545.49,366.11,553.59,357.61,553.59ZM524,531.19c-19.13-9.7-41.52-18.69-75.55-18.69a193.72,193.72,0,0,0-39.89,4.69l-1.92-11.91a203.29,203.29,0,0,1,41.81-4.91c35.94,0,59.54,9.48,79.7,19.72Z" transform="translate(-285 -444)"/></svg>